HIERARCHY
ROOT joint_0
{
	OFFSET 0.000000 0.000000 0.000000
	CHANNELS 6 Xposition Yposition Zposition Zrotation Yrotation Xrotation 
	JOINT joint_1
	{
		OFFSET 6.004005 -1.946999 100.587036
		CHANNELS 3 Zrotation Yrotation Xrotation
		JOINT joint_2
		{
			OFFSET -4.601006 -0.824997 91.925903
			CHANNELS 3 Zrotation Yrotation Xrotation
			JOINT joint_3
			{
				OFFSET -5.420998 -1.130005 91.774048
				CHANNELS 3 Zrotation Yrotation Xrotation
				JOINT joint_4
				{
					OFFSET 4.308998 -3.777992 123.473999
					CHANNELS 3 Zrotation Yrotation Xrotation
					JOINT joint_5
					{
						OFFSET 25.565002 -6.305008 79.437988
						CHANNELS 3 Zrotation Yrotation Xrotation
						End Site
						{
							OFFSET 0.000000 0.000000 0.000000
						}
					}
				}
				JOINT joint_6
				{
					OFFSET -1.750000 -28.655998 68.557983
					CHANNELS 3 Zrotation Yrotation Xrotation
					JOINT joint_7
					{
						OFFSET -17.692001 -116.544006 -17.244019
						CHANNELS 3 Zrotation Yrotation Xrotation
						JOINT joint_8
						{
							OFFSET 27.063004 -23.640991 -266.895020
							CHANNELS 3 Zrotation Yrotation Xrotation
							JOINT joint_9
							{
								OFFSET 40.722000 -15.761017 -232.488953
								CHANNELS 3 Zrotation Yrotation Xrotation
								End Site
								{
									OFFSET 0.000000 0.000000 0.000000
								}
							}
						}
					}
				}
				JOINT joint_10
				{
					OFFSET 6.593002 24.457001 69.892944
					CHANNELS 3 Zrotation Yrotation Xrotation
					JOINT joint_11
					{
						OFFSET 24.311996 114.920002 -19.872925
						CHANNELS 3 Zrotation Yrotation Xrotation
						JOINT joint_12
						{
							OFFSET 21.081001 15.319000 -268.037964
							CHANNELS 3 Zrotation Yrotation Xrotation
							JOINT joint_13
							{
								OFFSET 27.794006 -8.947001 -234.744080
								CHANNELS 3 Zrotation Yrotation Xrotation
								End Site
								{
									OFFSET 0.000000 0.000000 0.000000
								}
							}
						}
					}
				}
			}
		}
	}
	JOINT joint_14
	{
		OFFSET -6.627998 -80.520004 -98.790039
		CHANNELS 3 Zrotation Yrotation Xrotation
		JOINT joint_15
		{
			OFFSET -43.638000 -13.751999 -502.538971
			CHANNELS 3 Zrotation Yrotation Xrotation
			JOINT joint_16
			{
				OFFSET -39.532999 -9.912994 -398.071007
				CHANNELS 3 Zrotation Yrotation Xrotation
				JOINT joint_17
				{
					OFFSET 174.940004 -34.660995 -75.688002
					CHANNELS 3 Zrotation Yrotation Xrotation
					End Site
					{
						OFFSET 0.000000 0.000000 0.000000
					}
				}
			}
		}
	}
	JOINT joint_18
	{
		OFFSET 12.591003 79.842003 -98.765015
		CHANNELS 3 Zrotation Yrotation Xrotation
		JOINT joint_19
		{
			OFFSET -39.080002 -1.297001 -503.101013
			CHANNELS 3 Zrotation Yrotation Xrotation
			JOINT joint_20
			{
				OFFSET -51.570000 -0.514000 -396.815987
				CHANNELS 3 Zrotation Yrotation Xrotation
				JOINT joint_21
				{
					OFFSET 178.987999 -11.521999 -73.244003
					CHANNELS 3 Zrotation Yrotation Xrotation
					End Site
					{
						OFFSET 0.000000 0.000000 0.000000
					}
				}
			}
		}
	}
}
MOTION
Frames: 15
Frame Time: 0.016667
-2520.027588 998.554688 1097.428955 6.833071 -1.759277 0.073090 -0.166668 0.064382 -0.551435 -0.138269 -0.018199 0.111168 -0.148977 0.031924 -0.072877 -0.028832 -1.880939 -0.405502 0.000000 0.000000 0.000000 2.867184 2.364961 0.372613 -0.058633 2.269901 3.877198 -0.980754 4.556560 -3.230967 0.000000 0.000000 0.000000 2.353203 0.332958 0.725387 -0.197318 0.690367 -3.040497 0.667687 1.485585 7.272297 0.000000 0.000000 0.000000 1.555190 -2.435720 -2.540890 0.966887 4.365653 2.376893 1.359733 -0.608825 0.464508 0.000000 0.000000 0.000000 -0.727668 -3.136078 3.638953 -0.379066 2.310134 -0.267290 -0.403929 2.038017 -0.032692 0.000000 0.000000 0.000000 
-2520.090332 998.618042 1097.416016 6.809269 -1.770615 0.057739 -0.167306 0.061280 -0.551315 -0.139018 -0.018227 0.108515 -0.149460 0.032473 -0.071293 -0.031542 -1.877134 -0.395891 0.000000 0.000000 0.000000 2.853991 2.395147 0.400109 -0.061722 2.302503 3.880132 -0.982913 4.557147 -3.244688 0.000000 0.000000 0.000000 2.353414 0.331528 0.732567 -0.195492 0.688128 -3.028360 0.667254 1.479219 7.260164 0.000000 0.000000 0.000000 1.563274 -2.415614 -2.529755 0.976371 4.335344 2.381060 1.367239 -0.596380 0.470209 0.000000 0.000000 0.000000 -0.721640 -3.145200 3.656219 -0.370939 2.354608 -0.275696 -0.396789 2.027927 -0.030452 0.000000 0.000000 0.000000 
-2520.135010 998.681885 1097.401978 6.782746 -1.779632 0.041812 -0.167741 0.053935 -0.552336 -0.139373 -0.019187 0.107875 -0.149726 0.032247 -0.070570 -0.034119 -1.871294 -0.386147 0.000000 0.000000 0.000000 2.842324 2.425658 0.428496 -0.064814 2.335627 3.884219 -0.985437 4.559811 -3.259331 0.000000 0.000000 0.000000 2.354469 0.333332 0.739207 -0.193660 0.688067 -3.012474 0.666858 1.477374 7.250504 0.000000 0.000000 0.000000 1.572066 -2.395002 -2.518956 0.986523 4.299735 2.387110 1.375222 -0.581231 0.476653 0.000000 0.000000 0.000000 -0.714748 -3.152876 3.675659 -0.361561 2.393096 -0.286928 -0.388887 2.021596 -0.027662 0.000000 0.000000 0.000000 
-2520.152832 998.747437 1097.387939 6.753684 -1.784307 0.026602 -0.168573 0.034066 -0.554913 -0.139873 -0.017424 0.107848 -0.150296 0.030325 -0.071041 -0.035758 -1.861727 -0.378344 0.000000 0.000000 0.000000 2.833660 2.457251 0.458314 -0.067870 2.370098 3.890982 -0.988589 4.566700 -3.275200 0.000000 0.000000 0.000000 2.356197 0.338854 0.746951 -0.192330 0.691315 -2.994504 0.666600 1.484903 7.246592 0.000000 0.000000 0.000000 1.581937 -2.374658 -2.511527 0.997296 4.256743 2.397673 1.383794 -0.562179 0.484126 0.000000 0.000000 0.000000 -0.707133 -3.160174 3.695406 -0.351320 2.424141 -0.299962 -0.380485 2.019271 -0.024413 0.000000 0.000000 0.000000 
-2520.146484 998.814636 1097.373047 6.720945 -1.786123 0.011414 -0.168675 0.005065 -0.558928 -0.139394 -0.012961 0.109170 -0.150051 0.026117 -0.071855 -0.036471 -1.848371 -0.372411 0.000000 0.000000 0.000000 2.826318 2.490151 0.488780 -0.070958 2.405864 3.899899 -0.992317 4.576800 -3.292472 0.000000 0.000000 0.000000 2.357387 0.348057 0.753927 -0.191216 0.697372 -2.972940 0.666449 1.499598 7.247192 0.000000 0.000000 0.000000 1.592633 -2.353537 -2.505982 1.008638 4.206914 2.411720 1.392807 -0.539259 0.492558 0.000000 0.000000 0.000000 -0.698257 -3.165240 3.716542 -0.339542 2.447275 -0.315407 -0.371018 2.020838 -0.020483 0.000000 0.000000 0.000000 
-2520.128418 998.886169 1097.355957 6.689376 -1.784589 -0.003232 -0.169176 -0.027968 -0.562477 -0.139379 -0.008279 0.108770 -0.150148 0.020809 -0.072160 -0.037438 -1.834762 -0.365620 0.000000 0.000000 0.000000 2.817626 2.522412 0.519112 -0.073820 2.440536 3.910149 -0.996157 4.587623 -3.310099 0.000000 0.000000 0.000000 2.358656 0.358933 0.762004 -0.190485 0.705480 -2.952428 0.666373 1.518474 7.250802 0.000000 0.000000 0.000000 1.603201 -2.334318 -2.502250 1.019595 4.155104 2.427478 1.401556 -0.515923 0.500959 0.000000 0.000000 0.000000 -0.689806 -3.172892 3.737400 -0.328093 2.468890 -0.332180 -0.362062 2.024361 -0.016635 0.000000 0.000000 0.000000 
-2520.105469 998.963806 1097.338013 6.661706 -1.778801 -0.016411 -0.170639 -0.064477 -0.566839 -0.140288 -0.003632 0.107765 -0.151131 0.016107 -0.072595 -0.038767 -1.821408 -0.357768 0.000000 0.000000 0.000000 2.807192 2.552389 0.550186 -0.076438 2.472823 3.919871 -0.999787 4.597967 -3.326938 0.000000 0.000000 0.000000 2.358444 0.369631 0.772108 -0.190511 0.714818 -2.935908 0.666432 1.542615 7.258603 0.000000 0.000000 0.000000 1.612841 -2.319036 -2.500793 1.029357 4.103738 2.443596 1.409297 -0.493629 0.508719 0.000000 0.000000 0.000000 -0.682481 -3.186170 3.756178 -0.317871 2.491613 -0.349602 -0.354370 2.030662 -0.013120 0.000000 0.000000 0.000000 
-2520.075684 999.045593 1097.318970 6.636737 -1.769465 -0.028332 -0.173175 -0.103708 -0.573500 -0.142092 0.000255 0.107912 -0.153051 0.010765 -0.072514 -0.040080 -1.807609 -0.349839 0.000000 0.000000 0.000000 2.795680 2.580706 0.580739 -0.078811 2.503102 3.930075 -1.003614 4.610519 -3.343837 0.000000 0.000000 0.000000 2.357966 0.381467 0.782541 -0.191137 0.725638 -2.920947 0.666556 1.572488 7.269980 0.000000 0.000000 0.000000 1.621754 -2.306056 -2.501589 1.038164 4.050722 2.460533 1.416158 -0.471162 0.516136 0.000000 0.000000 0.000000 -0.676054 -3.203149 3.773582 -0.308575 2.513667 -0.367973 -0.347706 2.039301 -0.009871 0.000000 0.000000 0.000000 
-2520.031982 999.132751 1097.293945 6.612889 -1.756373 -0.040951 -0.175339 -0.147078 -0.577737 -0.143698 0.005391 0.105759 -0.154594 0.004402 -0.071406 -0.041028 -1.794093 -0.343136 0.000000 0.000000 0.000000 2.783189 2.609565 0.609599 -0.080867 2.533132 3.942508 -1.006861 4.618484 -3.359903 0.000000 0.000000 0.000000 2.356747 0.395176 0.792636 -0.191572 0.738664 -2.907136 0.666670 1.600331 7.280486 0.000000 0.000000 0.000000 1.629904 -2.297415 -2.502742 1.045869 4.000275 2.479500 1.422413 -0.450990 0.522834 0.000000 0.000000 0.000000 -0.669887 -3.224383 3.791878 -0.299325 2.537125 -0.387525 -0.341230 2.049146 -0.006622 0.000000 0.000000 0.000000 
-2519.976318 999.222290 1097.261963 6.587655 -1.741483 -0.056575 -0.176420 -0.190729 -0.579093 -0.144258 0.011049 0.105304 -0.155331 -0.001738 -0.072485 -0.042521 -1.787332 -0.336584 0.000000 0.000000 0.000000 2.773002 2.638566 0.638169 -0.082558 2.563272 3.956758 -1.008892 4.618151 -3.373496 0.000000 0.000000 0.000000 2.356326 0.410370 0.801581 -0.191280 0.752814 -2.892828 0.666763 1.621244 7.287728 0.000000 0.000000 0.000000 1.637769 -2.292236 -2.500882 1.053259 3.954147 2.499466 1.428798 -0.433682 0.529018 0.000000 0.000000 0.000000 -0.663604 -3.248094 3.813579 -0.289599 2.563288 -0.407443 -0.334326 2.059766 -0.003150 0.000000 0.000000 0.000000 
-2519.909668 999.315063 1097.224976 6.561683 -1.723909 -0.073946 -0.176558 -0.236190 -0.579019 -0.143919 0.016851 0.104945 -0.155119 -0.008174 -0.072526 -0.044032 -1.784195 -0.330980 0.000000 0.000000 0.000000 2.763553 2.668006 0.665062 -0.083914 2.593393 3.972704 -1.009951 4.611414 -3.384949 0.000000 0.000000 0.000000 2.354704 0.427338 0.808974 -0.190559 0.768747 -2.878799 0.666852 1.638149 7.293179 0.000000 0.000000 0.000000 1.645283 -2.291025 -2.497820 1.060108 3.911487 2.520866 1.435085 -0.418849 0.534668 0.000000 0.000000 0.000000 -0.657169 -3.275114 3.836958 -0.279543 2.591648 -0.427379 -0.327096 2.071383 0.000519 0.000000 0.000000 0.000000 
-2519.823242 999.411377 1097.175049 6.541845 -1.700653 -0.090931 -0.177778 -0.285532 -0.578637 -0.144629 0.022421 0.104895 -0.156008 -0.014501 -0.073144 -0.045036 -1.780663 -0.326817 0.000000 0.000000 0.000000 2.750160 2.697321 0.690574 -0.084900 2.622382 3.989689 -1.010527 4.602941 -3.394736 0.000000 0.000000 0.000000 2.354916 0.445759 0.814908 -0.189697 0.785813 -2.866093 0.666846 1.652274 7.296850 0.000000 0.000000 0.000000 1.650312 -2.296376 -2.496548 1.063854 3.873869 2.545097 1.439131 -0.408086 0.538544 0.000000 0.000000 0.000000 -0.652587 -3.309249 3.861472 -0.270858 2.621982 -0.451050 -0.321644 2.085883 0.003652 0.000000 0.000000 0.000000 
-2519.753906 999.520203 1097.112061 6.499242 -1.665175 -0.115156 -0.171690 -0.342987 -0.565860 -0.138498 0.025021 0.105666 -0.150051 -0.017981 -0.073963 -0.043295 -1.775153 -0.330645 0.000000 0.000000 0.000000 2.738579 2.722115 0.716001 -0.086102 2.647978 4.001056 -1.011269 4.597042 -3.404029 0.000000 0.000000 0.000000 2.357400 0.464893 0.811484 -0.188735 0.801474 -2.854534 0.667144 1.663244 7.302850 0.000000 0.000000 0.000000 1.661938 -2.323425 -2.489222 1.073658 3.846106 2.572678 1.450030 -0.404725 0.543894 0.000000 0.000000 0.000000 -0.641560 -3.356249 3.895724 -0.254472 2.654671 -0.479015 -0.309389 2.102962 0.009706 0.000000 0.000000 0.000000 
-2519.706299 999.642517 1097.036011 6.431072 -1.618804 -0.147347 -0.157885 -0.408374 -0.539886 -0.125154 0.028149 0.106576 -0.136919 -0.023046 -0.074822 -0.039058 -1.765391 -0.341078 0.000000 0.000000 0.000000 2.733062 2.743393 0.740018 -0.087410 2.671301 4.008734 -1.012016 4.592673 -3.412389 0.000000 0.000000 0.000000 2.363774 0.485330 0.800022 -0.187685 0.816397 -2.844478 0.667735 1.671347 7.311067 0.000000 0.000000 0.000000 1.680927 -2.371156 -2.475185 1.090334 3.828002 2.603805 1.468585 -0.409289 0.550961 0.000000 0.000000 0.000000 -0.623007 -3.414593 3.940204 -0.229302 2.690020 -0.510967 -0.289245 2.121243 0.019033 0.000000 0.000000 0.000000 
-2519.482666 999.736450 1096.937988 6.485355 -1.579133 -0.148101 -0.178546 -0.469095 -0.559724 -0.144192 0.026869 0.110272 -0.156389 -0.022283 -0.078517 -0.039711 -1.758873 -0.337061 0.000000 0.000000 0.000000 2.691602 2.777343 0.762300 -0.086975 2.699168 4.031751 -1.010735 4.577331 -3.416190 0.000000 0.000000 0.000000 2.369435 0.508962 0.807683 -0.186820 0.839422 -2.837994 0.666952 1.679455 7.306219 0.000000 0.000000 0.000000 1.661355 -2.383013 -2.496237 1.066613 3.803353 2.638198 1.448544 -0.406087 0.542967 0.000000 0.000000 0.000000 -0.640335 -3.471942 3.953273 -0.242004 2.724775 -0.548578 -0.305983 2.151211 0.014169 0.000000 0.000000 0.000000 
